<svg width="163" height="70" viewBox="0 0 163 70" fill="none" xmlns="http://www.w3.org/2000/svg">
<path d="M4.752 69.832C2.192 69.832 0.912 68.2 0.912 64.936C0.912 59.624 3.952 52.776 10.032 44.392C8.688 43.816 7.856 43.24 7.536 42.664C7.28 42.024 7.152 41.384 7.152 40.744C7.152 38.76 7.632 37.768 8.592 37.768C9.552 37.768 10.512 38.888 11.472 41.128L12.144 41.608C13.424 39.944 14.768 38.28 16.176 36.616C17.648 34.952 19.216 33.256 20.88 31.528L30.192 22.12C29.872 21.8 29.712 21.512 29.712 21.256C29.712 20.488 30.576 19.592 32.304 18.568C34.544 17.288 35.664 16.616 35.664 16.552C36.368 15.784 37.68 15.4 39.6 15.4C40.688 15.4 41.392 15.656 41.712 16.168C41.776 16.232 41.808 16.328 41.808 16.456C41.808 17.032 41.264 17.768 40.176 18.664C35.184 22.824 30.608 26.92 26.448 30.952C22.352 34.92 18.64 38.92 15.312 42.952C16.912 43.4 18.96 43.624 21.456 43.624C23.12 43.624 24.912 43.528 26.832 43.336C28.752 43.08 30.832 42.728 33.072 42.28C36.336 41.64 39.664 40.648 43.056 39.304C46.512 37.896 49.712 36.2 52.656 34.216C55.6 32.232 57.968 30.024 59.76 27.592C61.616 25.096 62.544 22.472 62.544 19.72C62.544 16.968 61.808 14.696 60.336 12.904C58.928 11.112 57.008 9.736 54.576 8.776C52.144 7.752 49.392 7.048 46.32 6.664C43.248 6.28 40.08 6.088 36.816 6.088C34.32 6.088 31.568 6.344 28.56 6.856C25.552 7.368 22.544 8.104 19.536 9.064C16.592 10.024 13.872 11.208 11.376 12.616C8.944 13.96 6.96 15.528 5.424 17.32C3.952 19.048 3.216 20.936 3.216 22.984C3.216 24.456 3.632 25.8 4.464 27.016C5.36 28.232 6.352 28.968 7.44 29.224C8.592 29.48 9.168 29.928 9.168 30.568C9.168 31.08 8.72 31.24 7.824 31.048C6.544 30.792 5.296 30.216 4.08 29.32C2.928 28.424 1.968 27.368 1.2 26.152C0.496 24.872 0.144 23.624 0.144 22.408C0.144 19.4 1.168 16.776 3.216 14.536C5.328 12.232 8.048 10.312 11.376 8.776C14.704 7.24 18.256 6.056 22.032 5.224C25.872 4.328 29.552 3.848 33.072 3.784C37.104 3.656 41.072 3.816 44.976 4.264C48.88 4.648 52.4 5.416 55.536 6.568C58.736 7.72 61.264 9.288 63.12 11.272C65.04 13.256 66 15.752 66 18.76C66 21.96 64.976 24.968 62.928 27.784C60.944 30.536 58.32 33.032 55.056 35.272C51.792 37.448 48.272 39.304 44.496 40.84C40.72 42.376 37.072 43.496 33.552 44.2C30.928 44.712 28.4 45.096 25.968 45.352C23.6 45.608 21.328 45.736 19.152 45.736C17.936 45.736 16.848 45.704 15.888 45.64C14.928 45.576 14.096 45.48 13.392 45.352C6.288 54.248 2.736 60.84 2.736 65.128C2.736 66.856 3.504 67.72 5.04 67.72C5.552 67.72 5.904 67.688 6.096 67.624C7.184 67.048 8.08 66.76 8.784 66.76C9.36 66.76 9.648 66.952 9.648 67.336C9.648 67.912 8.688 68.648 6.768 69.544C6 69.736 5.328 69.832 4.752 69.832ZM140.537 68.584C139.065 68.584 137.497 67.816 135.833 66.28C134.233 64.744 133.433 63.432 133.433 62.344C133.497 58.056 136.281 51.304 141.785 42.088C144.025 38.248 146.553 34.312 149.369 30.28C152.249 26.248 155.417 22.024 158.873 17.608C159.129 17.16 159.257 16.648 159.257 16.072C159.257 14.536 158.617 13.768 157.337 13.768C155.481 13.768 153.241 14.376 150.617 15.592C148.057 16.808 145.113 18.6 141.785 20.968C132.569 27.496 124.473 33.8 117.497 39.88C110.521 45.96 104.537 51.88 99.5453 57.64C99.0973 58.216 98.3613 58.504 97.3373 58.504C95.8013 58.504 95.0333 58.056 95.0333 57.16C95.0333 57.16 95.0973 56.968 95.2253 56.584C97.8493 52.232 100.473 47.56 103.097 42.568C105.721 37.576 108.345 32.296 110.969 26.728C112.377 23.912 113.081 21.736 113.081 20.2C113.081 19.048 112.537 18.536 111.449 18.664C107.225 19.304 101.913 22.056 95.5133 26.92C92.1213 33 88.5053 38.664 84.6653 43.912C80.8253 49.16 76.7613 54.024 72.4733 58.504C69.7213 61.384 67.2253 62.824 64.9853 62.824C63.1933 62.824 62.2973 62.024 62.2973 60.424C62.2973 59.656 62.4893 58.952 62.8733 58.312C64.0893 56.2 65.5293 53.96 67.1933 51.592C68.9213 49.224 70.9053 46.76 73.1453 44.2C76.9853 39.784 80.4413 36.392 83.5133 34.024L89.8493 28.84C90.7453 27.368 91.5453 25.896 92.2493 24.424C93.0173 22.888 93.7213 21.32 94.3613 19.72L97.0493 13.576C98.2653 10.696 98.8733 8.328 98.8733 6.472C98.8733 3.848 97.2093 2.536 93.8813 2.536C91.0013 2.536 86.7773 3.752 81.2093 6.184C79.0973 7.144 77.0813 8.168 75.1613 9.256C73.3053 10.28 71.5453 11.336 69.8813 12.424C68.6653 13.256 67.2253 14.408 65.5613 15.88C63.8973 17.288 62.0413 19.016 59.9933 21.064C55.0653 25.864 52.6013 29.064 52.6013 30.664C52.6013 32.52 54.4893 33.352 58.2653 33.16H58.7453C59.3213 33.16 59.6093 33.352 59.6093 33.736C59.6093 34.44 58.8733 34.792 57.4013 34.792C54.9053 34.792 52.8253 34.312 51.1613 33.352C49.5613 32.328 48.7613 31.048 48.7613 29.512C48.7613 28.936 48.8573 28.424 49.0493 27.976C49.7533 26.184 52.2493 23.24 56.5373 19.144C58.5853 17.288 60.4733 15.656 62.2013 14.248C63.9933 12.776 65.6253 11.56 67.0973 10.6C77.3373 4.008 85.9133 0.711998 92.8253 0.711998C95.5773 0.711998 97.7533 1.32 99.3533 2.536C100.953 3.752 101.753 5.832 101.753 8.776C101.753 12.488 100.633 16.744 98.3933 21.544L97.7213 22.888C100.857 20.712 103.641 19.048 106.073 17.896C108.569 16.744 110.745 16.168 112.601 16.168C115.481 16.168 116.921 17.736 116.921 20.872C116.921 22.792 116.345 25.288 115.193 28.36C114.489 30.216 113.401 32.68 111.929 35.752C110.521 38.76 108.697 42.408 106.457 46.696C112.601 41.064 118.521 35.912 124.217 31.24C129.977 26.504 135.641 22.184 141.209 18.28C147.417 13.8 152.729 11.56 157.145 11.56C158.681 11.56 160.025 12.264 161.177 13.672C162.393 15.08 163.001 16.616 163.001 18.28C163.001 19.304 162.713 20.264 162.137 21.16L148.025 40.456C145.273 44.552 143.033 48.52 141.305 52.36C139.641 56.136 138.457 59.816 137.753 63.4C137.753 63.528 137.721 63.656 137.657 63.784C137.657 63.912 137.657 64.04 137.657 64.168C137.657 65.256 138.169 65.8 139.193 65.8C140.793 65.8 143.257 64.648 146.585 62.344C149.081 60.68 151.321 58.856 153.305 56.872C153.689 56.488 154.009 56.296 154.265 56.296C154.585 56.296 154.745 56.52 154.745 56.968C154.745 57.672 154.425 58.344 153.785 58.984C147.769 65.384 143.353 68.584 140.537 68.584ZM67.0013 58.696C67.6413 58.696 68.4413 58.184 69.4013 57.16C72.7293 53.768 75.8653 50.152 78.8093 46.312C81.7533 42.408 84.5053 38.312 87.0653 34.024C85.7853 35.048 84.1213 36.488 82.0733 38.344C80.0893 40.136 77.7213 42.408 74.9693 45.16C73.3053 47.144 71.7693 49.096 70.3613 51.016C68.9533 52.936 67.7053 54.888 66.6173 56.872C66.4253 57.256 66.3293 57.608 66.3293 57.928C66.3293 58.44 66.5533 58.696 67.0013 58.696Z" fill="#64FFDA"/>
</svg>
