<svg width="26" height="26" viewBox="0 0 26 26" fill="none" xmlns="http://www.w3.org/2000/svg">
<g id="cloud_download_26dp_64FFDA_FILL0_wght300_GRAD0_opsz24 1">
<path id="Vector" d="M7.04167 21.1249C5.5445 21.1249 4.26743 20.6047 3.21046 19.5644C2.15349 18.5242 1.625 17.2555 1.625 15.7584C1.625 14.4333 2.04931 13.2548 2.89792 12.2229C3.74653 11.1908 4.82914 10.5804 6.14575 10.3915C6.39022 9.07076 7.11073 7.83576 8.30727 6.68653C9.50381 5.53711 10.7972 4.9624 12.1875 4.9624C12.6306 4.9624 13.0122 5.12247 13.3323 5.44259C13.6524 5.76272 13.8125 6.14432 13.8125 6.5874V13.8084L15.7958 11.8584L16.9374 12.9999L13 16.9373L9.06262 12.9999L10.2042 11.8584L12.1875 13.8084V6.5874C10.8223 6.74304 9.71362 7.37011 8.8614 8.46861C8.00935 9.56729 7.58333 10.7166 7.58333 11.9166H7.04167C5.99444 11.9166 5.10069 12.2867 4.36042 13.027C3.62014 13.7673 3.25 14.661 3.25 15.7083C3.25 16.7555 3.62014 17.6492 4.36042 18.3895C5.10069 19.1298 5.99444 19.4999 7.04167 19.4999H20.0417C20.8 19.4999 21.441 19.2381 21.9646 18.7145C22.4882 18.1909 22.75 17.5499 22.75 16.7916C22.75 16.0333 22.4882 15.3923 21.9646 14.8687C21.441 14.3451 20.8 14.0833 20.0417 14.0833H18.4167V11.9166C18.4167 11.036 18.2181 10.2211 17.8208 9.47178C17.4236 8.72247 16.9 8.09297 16.25 7.58326V5.67903C17.4263 6.27631 18.3524 7.13602 19.0282 8.25817C19.7038 9.38051 20.0417 10.6 20.0417 11.9166V12.4583H20.3751C21.5167 12.5471 22.4688 13.0062 23.2313 13.8354C23.9938 14.6646 24.375 15.6499 24.375 16.7916C24.375 17.9999 23.9548 19.0242 23.1145 19.8645C22.2742 20.7048 21.2499 21.1249 20.0417 21.1249H7.04167Z" fill="#05C2DF"/>
</g>
</svg>
